HIERARCHY
ROOT Root
{
  OFFSET 0.0 0.0 0.0
  CHANNELS 6 Xposition Yposition Zposition Zrotation Yrotation Xrotation
  JOINT Hips
  {
    OFFSET 0.0 100.0 0.0
    CHANNELS 6 Xposition Yposition Zposition Zrotation Yrotation Xrotation
    JOINT Spine1
    {
      OFFSET -0.013727 5.003763 -0.053727
      CHANNELS 3 Zrotation Yrotation Xrotation
      JOINT Spine2
      {
        OFFSET -0.0 7.125301 -0.029825
        CHANNELS 3 Zrotation Yrotation Xrotation
        JOINT Chest
        {
          OFFSET -1e-06 7.550063 -0.815971
          CHANNELS 3 Zrotation Yrotation Xrotation
          JOINT Neck1
          {
            OFFSET -0.181677 26.311295 -0.553348
            CHANNELS 3 Zrotation Yrotation Xrotation
            JOINT Neck2
            {
              OFFSET -3e-06 7.709397 2.302585
              CHANNELS 3 Zrotation Yrotation Xrotation
              JOINT Head
              {
                OFFSET -5e-06 6.128916 1.953709
                CHANNELS 3 Zrotation Yrotation Xrotation
                JOINT HeadEnd
                {
                  OFFSET 0.003598 16.065403 -1.835379
                  CHANNELS 3 Zrotation Yrotation Xrotation
                }
                JOINT Jaw
                {
                  OFFSET 0.002637 0.475592 3.094941
                  CHANNELS 3 Zrotation Yrotation Xrotation
                }
                JOINT LeftEye
                {
                  OFFSET 3.206381 5.380205 7.586883
                  CHANNELS 3 Zrotation Yrotation Xrotation
                }
                JOINT RightEye
                {
                  OFFSET -3.22244 5.361869 7.558234
                  CHANNELS 3 Zrotation Yrotation Xrotation
                }
              }
            }
          }
          JOINT LeftShoulder
          {
            OFFSET 1.621652 23.237164 5.113413
            CHANNELS 3 Zrotation Yrotation Xrotation
            JOINT LeftArm
            {
              OFFSET 14.919846 2e-06 -5.502326
              CHANNELS 3 Zrotation Yrotation Xrotation
              JOINT LeftForeArm
              {
                OFFSET 28.739307 0.0 -0.002588
                CHANNELS 3 Zrotation Yrotation Xrotation
                JOINT LeftHand
                {
                  OFFSET 27.093981 -1e-06 0.002609
                  CHANNELS 3 Zrotation Yrotation Xrotation
                  JOINT LeftHandThumb1
                  {
                    OFFSET 2.276482 -1.392045 3.191413
                    CHANNELS 3 Zrotation Yrotation Xrotation
                    JOINT LeftHandThumb2
                    {
                      OFFSET 4.012836 -1.828127 1.641654
                      CHANNELS 3 Zrotation Yrotation Xrotation
                      JOINT LeftHandThumb3
                      {
                        OFFSET 2.798515 0.0 -3e-06
                        CHANNELS 3 Zrotation Yrotation Xrotation
                        JOINT LeftHandThumbEnd
                        {
                          OFFSET 3.180793 -4e-06 4e-06
                          CHANNELS 3 Zrotation Yrotation Xrotation
                        }
                      }
                    }
                  }
                  JOINT LeftHandIndex1
                  {
                    OFFSET 3.247555 -0.531998 2.296169
                    CHANNELS 3 Zrotation Yrotation Xrotation
                    JOINT LeftHandIndex2
                    {
                      OFFSET 6.364578 0.01206 0.1786
                      CHANNELS 3 Zrotation Yrotation Xrotation
                      JOINT LeftHandIndex3
                      {
                        OFFSET 3.662364 0.0 0.0
                        CHANNELS 3 Zrotation Yrotation Xrotation
                        JOINT LeftHandIndex4
                        {
                          OFFSET 2.329242 4e-06 4e-06
                          CHANNELS 3 Zrotation Yrotation Xrotation
                          JOINT LeftHandIndexEnd
                          {
                            OFFSET 2.759615 -0.180537 -0.113024
                            CHANNELS 3 Zrotation Yrotation Xrotation
                          }
                        }
                      }
                    }
                  }
                  JOINT LeftHandMiddle1
                  {
                    OFFSET 3.163495 0.240981 1.000332
                    CHANNELS 3 Zrotation Yrotation Xrotation
                    JOINT LeftHandMiddle2
                    {
                      OFFSET 6.19078 -0.259278 -1.002548
                      CHANNELS 3 Zrotation Yrotation Xrotation
                      JOINT LeftHandMiddle3
                      {
                        OFFSET 4.35652 -4e-06 -1e-06
                        CHANNELS 3 Zrotation Yrotation Xrotation
                        JOINT LeftHandMiddle4
                        {
                          OFFSET 2.996877 -8e-06 0.0
                          CHANNELS 3 Zrotation Yrotation Xrotation
                          JOINT LeftHandMiddleEnd
                          {
                            OFFSET 2.304287 -0.294569 -0.031741
                            CHANNELS 3 Zrotation Yrotation Xrotation
                          }
                        }
                      }
                    }
                  }
                  JOINT LeftHandRing1
                  {
                    OFFSET 2.882643 -0.053652 -0.322543
                    CHANNELS 3 Zrotation Yrotation Xrotation
                    JOINT LeftHandRing2
                    {
                      OFFSET 5.854541 -0.486202 -1.373841
                      CHANNELS 3 Zrotation Yrotation Xrotation
                      JOINT LeftHandRing3
                      {
                        OFFSET 4.350578 0.0 3e-06
                        CHANNELS 3 Zrotation Yrotation Xrotation
                        JOINT LeftHandRing4
                        {
                          OFFSET 2.651321 7e-06 2e-06
                          CHANNELS 3 Zrotation Yrotation Xrotation
                          JOINT LeftHandRingEnd
                          {
                            OFFSET 1.936105 0.077687 -7.1e-05
                            CHANNELS 3 Zrotation Yrotation Xrotation
                          }
                        }
                      }
                    }
                  }
                  JOINT LeftHandPinky1
                  {
                    OFFSET 2.8655 -0.310005 -1.600378
                    CHANNELS 3 Zrotation Yrotation Xrotation
                    JOINT LeftHandPinky2
                    {
                      OFFSET 5.087849 -1.331141 -1.77123
                      CHANNELS 3 Zrotation Yrotation Xrotation
                      JOINT LeftHandPinky3
                      {
                        OFFSET 3.070974 4e-06 0.0
                        CHANNELS 3 Zrotation Yrotation Xrotation
                        JOINT LeftHandPinky4
                        {
                          OFFSET 1.549672 0.0 1e-06
                          CHANNELS 3 Zrotation Yrotation Xrotation
                          JOINT LeftHandPinkyEnd
                          {
                            OFFSET 1.944893 -0.157802 0.057219
                            CHANNELS 3 Zrotation Yrotation Xrotation
                          }
                        }
                      }
                    }
                  }
                }
              }
            }
          }
          JOINT RightShoulder
          {
            OFFSET -1.380118 23.180309 5.214158
            CHANNELS 3 Zrotation Yrotation Xrotation
            JOINT RightArm
            {
              OFFSET -15.037196 1.2e-05 -5.545604
              CHANNELS 3 Zrotation Yrotation Xrotation
              JOINT RightForeArm
              {
                OFFSET -28.736639 2e-06 -0.002597
                CHANNELS 3 Zrotation Yrotation Xrotation
                JOINT RightHand
                {
                  OFFSET -27.133619 -0.0 0.002613
                  CHANNELS 3 Zrotation Yrotation Xrotation
                  JOINT RightHandThumb1
                  {
                    OFFSET -2.274032 -1.383988 3.163127
                    CHANNELS 3 Zrotation Yrotation Xrotation
                    JOINT RightHandThumb2
                    {
                      OFFSET -4.011429 -1.827466 1.640914
                      CHANNELS 3 Zrotation Yrotation Xrotation
                      JOINT RightHandThumb3
                      {
                        OFFSET -2.794935 -4e-06 -3e-06
                        CHANNELS 3 Zrotation Yrotation Xrotation
                        JOINT RightHandThumbEnd
                        {
                          OFFSET -3.183852 4e-06 1e-06
                          CHANNELS 3 Zrotation Yrotation Xrotation
                        }
                      }
                    }
                  }
                  JOINT RightHandIndex1
                  {
                    OFFSET -3.253266 -0.520057 2.282866
                    CHANNELS 3 Zrotation Yrotation Xrotation
                    JOINT RightHandIndex2
                    {
                      OFFSET -6.341917 0.012471 0.178266
                      CHANNELS 3 Zrotation Yrotation Xrotation
                      JOINT RightHandIndex3
                      {
                        OFFSET -3.654871 -8e-06 -0.0
                        CHANNELS 3 Zrotation Yrotation Xrotation
                        JOINT RightHandIndex4
                        {
                          OFFSET -2.327586 0.0 1e-06
                          CHANNELS 3 Zrotation Yrotation Xrotation
                          JOINT RightHandIndexEnd
                          {
                            OFFSET -2.76179 -0.180656 -0.113078
                            CHANNELS 3 Zrotation Yrotation Xrotation
                          }
                        }
                      }
                    }
                  }
                  JOINT RightHandMiddle1
                  {
                    OFFSET -3.168106 0.246593 1.00103
                    CHANNELS 3 Zrotation Yrotation Xrotation
                    JOINT RightHandMiddle2
                    {
                      OFFSET -6.180828 -0.258836 -1.000895
                      CHANNELS 3 Zrotation Yrotation Xrotation
                      JOINT RightHandMiddle3
                      {
                        OFFSET -4.348901 0.0 -0.0
                        CHANNELS 3 Zrotation Yrotation Xrotation
                        JOINT RightHandMiddle4
                        {
                          OFFSET -3.00024 -4e-06 -2e-06
                          CHANNELS 3 Zrotation Yrotation Xrotation
                          JOINT RightHandMiddleEnd
                          {
                            OFFSET -2.30252 -0.29437 -0.031706
                            CHANNELS 3 Zrotation Yrotation Xrotation
                          }
                        }
                      }
                    }
                  }
                  JOINT RightHandRing1
                  {
                    OFFSET -2.88569 -0.067952 -0.308858
                    CHANNELS 3 Zrotation Yrotation Xrotation
                    JOINT RightHandRing2
                    {
                      OFFSET -5.854198 -0.48613 -1.373731
                      CHANNELS 3 Zrotation Yrotation Xrotation
                      JOINT RightHandRing3
                      {
                        OFFSET -4.33881 -4e-06 -0.0
                        CHANNELS 3 Zrotation Yrotation Xrotation
                        JOINT RightHandRing4
                        {
                          OFFSET -2.654903 -4e-06 4e-06
                          CHANNELS 3 Zrotation Yrotation Xrotation
                          JOINT RightHandRingEnd
                          {
                            OFFSET -1.933568 0.077527 -5.2e-05
                            CHANNELS 3 Zrotation Yrotation Xrotation
                          }
                        }
                      }
                    }
                  }
                  JOINT RightHandPinky1
                  {
                    OFFSET -2.866425 -0.342796 -1.584145
                    CHANNELS 3 Zrotation Yrotation Xrotation
                    JOINT RightHandPinky2
                    {
                      OFFSET -5.091371 -1.332055 -1.772385
                      CHANNELS 3 Zrotation Yrotation Xrotation
                      JOINT RightHandPinky3
                      {
                        OFFSET -3.062664 -4e-06 1e-06
                        CHANNELS 3 Zrotation Yrotation Xrotation
                        JOINT RightHandPinky4
                        {
                          OFFSET -1.546529 4e-06 -2e-06
                          CHANNELS 3 Zrotation Yrotation Xrotation
                          JOINT RightHandPinkyEnd
                          {
                            OFFSET -1.945119 -0.157718 0.057211
                            CHANNELS 3 Zrotation Yrotation Xrotation
                          }
                        }
                      }
                    }
                  }
                }
              }
            }
          }
        }
      }
    }
    JOINT LeftLeg
    {
      OFFSET 10.043214 -8.434526 2.595655
      CHANNELS 3 Zrotation Yrotation Xrotation
      JOINT LeftShin
      {
        OFFSET -1e-06 -43.221752 -0.802913
        CHANNELS 3 Zrotation Yrotation Xrotation
        JOINT LeftFoot
        {
          OFFSET 1e-06 -42.155094 -3.481523
          CHANNELS 3 Zrotation Yrotation Xrotation
          JOINT LeftToeBase
          {
            OFFSET 0.0 -5.059472 13.231529
            CHANNELS 3 Zrotation Yrotation Xrotation
            JOINT LeftToeEnd
            {
              OFFSET -0.009607 -1.647619 6.513017
              CHANNELS 3 Zrotation Yrotation Xrotation
            }
          }
        }
      }
    }
    JOINT RightLeg
    {
      OFFSET -10.047278 -8.29526 2.620317
      CHANNELS 3 Zrotation Yrotation Xrotation
      JOINT RightShin
      {
        OFFSET 1e-06 -43.362206 -0.805556
        CHANNELS 3 Zrotation Yrotation Xrotation
        JOINT RightFoot
        {
          OFFSET 2e-06 -42.117393 -3.478398
          CHANNELS 3 Zrotation Yrotation Xrotation
          JOINT RightToeBase
          {
            OFFSET -0.0 -5.079609 13.284196
            CHANNELS 3 Zrotation Yrotation Xrotation
            JOINT RightToeEnd
            {
              OFFSET 0.009532 -1.634378 6.460591
              CHANNELS 3 Zrotation Yrotation Xrotation
            }
          }
        }
      }
    }
  }
}
MOTION
Frames: 4
Frame Time: 0.03333333333333333
0.0 0.0 0.0 0.0 -0.0 0.0 0.428369 38.288345 4.967849 -3.614764 -1.725122 0.816787 -3.561789 -3.210031 19.559425 -1.309204 -2.423021 4.750927 0.181999 -7.86166 15.364586 -3.624865 5.368248 -10.878312 4.274498 15.388302 -2.52759 -6.805511 20.799704 -18.555838 7.7e-05 -2.3e-05 6e-06 0.046142 -0.22807 -0.011015 0.691192 -3.960829 -10.904728 -0.610476 3.522886 -10.827521 -2.738271 -15.501139 7.581488 -18.230032 -50.181194 31.481623 -0.301764 -52.924065 0.452082 14.392737 1.935589 5.079206 -5.882113 9.86129 0.702591 -10.936886 -0.360573 7.156214 1e-06 8.774831 1e-06 -15.959939 17.816547 6.796958 -1.844033 2.498508 -2.507281 -10.163611 4.678947 4.621114 -20.976051 -6e-06 3e-06 -21.226313 2.451697 -3.594002 -0.0 -6e-06 1e-06 -1.362683 2.240799 -0.746324 -21.334944 0.584911 3.008327 -13.821233 -3e-06 2e-06 -23.887203 -0.24908 -0.839483 -61.771782 2.876685 -0.508434 -0.294025 1.679687 0.833256 -14.218227 0.093215 1.300581 -34.212097 -0.287569 0.967173 -20.033236 0.964537 1.212846 1e-06 0.0 -1e-06 -3.440392 0.788235 0.501656 -15.928205 -3.167313 2.99971 -6.338835 -0.0 -1e-06 -18.123468 3.64818 -4.905674 -4e-06 0.0 -2e-06 6.639317 15.664619 7.426351 72.305016 8.568544 1.541829 -5.678855 74.273338 -4.108243 -14.52515 15.138239 11.289801 2.243544 -5.255039 -3.18016 14.282899 -0.826599 6.952507 -1e-06 -12.690612 1e-06 16.149046 -18.511423 2.872419 1.665668 -1.955924 -2.878301 4.727802 -4.170592 4.993927 11.020531 1e-06 -2e-06 12.109058 -3.735719 -2.866787 -0.0 0.0 0.0 1.291986 -1.92855 -1.49809 14.800136 0.567465 3.86561 14.242579 -1.341737 -6.660662 19.631975 0.143924 -0.648245 51.119015 -0.537942 -7.131721 0.35303 -1.511151 -0.031941 20.222801 3.684308 2.31663 18.787283 3e-06 -1e-06 10.751632 -0.47987 1.397906 1e-06 -0.0 -0.0 3.273808 0.305945 -0.580112 21.48682 11.830378 2.266135 8.16293 -0.0 -1e-06 18.399094 -3.79899 -4.940579 3e-06 0.0 -2e-06 7.505688 21.554728 -115.569221 0.095991 -0.06968 127.637634 -5.55276 -0.649831 -10.465782 1.477454 -2.003948 1.704245 0.0 -0.0 2e-06 -50.322987 -40.179317 -59.867565 1.569989 1.177356 125.965958 16.994602 42.723667 -26.238363 -1.481853 0.314497 1.964366 0.0 0.0 -1e-06 
0.0 0.0 0.0 0.0 -0.0 0.0 0.324676 38.286095 4.925776 -3.520204 -1.744689 0.794435 -3.505945 -3.221186 19.481197 -1.285658 -2.405978 4.726439 0.395347 -7.820487 15.392846 -3.569803 5.358441 -10.564656 4.224882 15.224439 -2.543919 -6.667964 20.543091 -18.072868 7.7e-05 -2.3e-05 6e-06 0.041504 -0.203585 -0.024357 0.693757 -3.934058 -10.90694 -0.62271 3.545924 -10.831172 -3.000361 -15.501148 7.767417 -15.018608 -49.407074 29.591726 0.044368 -53.932968 0.237118 14.382504 2.350837 5.381683 -5.882111 9.86129 0.70259 -10.936882 -0.360575 7.15621 4e-06 8.774831 1e-06 -15.945669 17.835737 6.853377 -1.844035 2.498505 -2.507281 -10.16361 4.678946 4.621109 -20.976044 -7e-06 1e-06 -21.226305 2.451694 -3.594001 0.0 -6e-06 2e-06 -1.362683 2.240802 -0.746324 -21.334938 0.584908 3.008322 -13.821229 -4e-06 0.0 -23.887201 -0.249083 -0.839484 -61.82373 2.87165 -0.472787 -0.294026 1.679688 0.833256 -14.218225 0.093215 1.300579 -34.212086 -0.287571 0.967169 -20.033236 0.964532 1.212846 0.0 0.0 -1e-06 -3.440392 0.788233 0.501656 -15.928203 -3.167313 2.999707 -6.338833 -2e-06 -2e-06 -18.123466 3.64818 -4.905674 -4e-06 1e-06 -2e-06 6.835619 15.966387 7.4232 72.275597 8.957339 -0.292287 -5.160079 75.456917 -3.687135 -15.115489 15.2077 8.563972 2.243542 -5.255036 -3.180157 14.282894 -0.826598 6.952503 -1e-06 -12.690605 -1e-06 16.003763 -18.399748 2.882312 1.665666 -1.955923 -2.878298 4.727799 -4.170588 4.993925 11.020528 3e-06 -1e-06 12.109053 -3.735718 -2.866786 0.0 -0.0 0.0 1.291986 -1.92855 -1.49809 14.800131 0.567466 3.865608 14.242573 -1.341738 -6.660659 19.631969 0.143923 -0.648246 51.110329 -0.443359 -7.040857 0.353028 -1.511151 -0.03194 20.222795 3.684307 2.31663 18.787273 4e-06 -1e-06 10.751631 -0.47987 1.397906 -2e-06 1e-06 -0.0 3.273807 0.305947 -0.580111 21.486813 11.830376 2.266134 8.162927 -0.0 -2e-06 18.399086 -3.798987 -4.940577 3e-06 -0.0 -1e-06 7.357656 21.762533 -115.567169 0.092872 -0.071661 127.546982 -5.480075 -0.679176 -10.486589 1.478129 -2.034263 1.679746 0.0 -0.0 2e-06 -50.315525 -40.323307 -59.998726 1.591681 1.160402 126.097763 16.708755 43.102238 -26.494322 -1.47923 0.327059 1.893251 0.0 -0.0 -1e-06 
0.0 0.0 0.0 0.0 -0.0 0.0 0.201979 38.287437 4.871008 -3.418539 -1.742306 0.79706 -3.44395 -3.232708 19.422949 -1.246857 -2.382165 4.702069 0.606175 -7.736382 15.414989 -3.594936 5.350801 -10.203044 4.122361 15.001611 -2.583219 -6.472842 20.14813 -17.530539 7.7e-05 -2.3e-05 6e-06 0.037837 -0.181622 -0.037069 0.697222 -3.909238 -10.903074 -0.633906 3.565677 -10.830794 -3.16017 -15.472745 7.874226 -11.840676 -48.468487 27.632483 0.469559 -55.340599 -0.001112 14.190434 2.717823 5.758042 -5.882106 9.861283 0.702589 -10.93687 -0.360577 7.156207 3e-06 8.774824 0.0 -15.92194 17.830652 6.901113 -1.844032 2.498505 -2.507279 -10.163599 4.678941 4.621109 -20.976021 -8e-06 2e-06 -21.226284 2.45169 -3.594 1e-06 -6e-06 -0.0 -1.362682 2.240797 -0.746325 -21.334909 0.584903 3.008323 -13.821213 -7e-06 1e-06 -23.887169 -0.249086 -0.839481 -61.816853 2.861935 -0.449941 -0.294027 1.679686 0.833255 -14.218208 0.093211 1.300578 -34.212048 -0.287571 0.967171 -20.033215 0.964534 1.212846 -0.0 0.0 -1e-06 -3.440388 0.788232 0.501655 -15.928185 -3.167311 2.999706 -6.338824 -3e-06 0.0 -18.123444 3.648177 -4.905669 -5e-06 1e-06 -2e-06 6.939403 16.357933 7.368744 72.135109 9.479642 -2.319179 -4.432434 76.948669 -3.093722 -15.629978 15.222363 5.405842 2.243543 -5.255039 -3.180159 14.282896 -0.826596 6.952504 -1e-06 -12.69061 -0.0 15.894554 -18.251743 2.866826 1.665667 -1.955922 -2.878299 4.727801 -4.17059 4.993925 11.02053 2e-06 0.0 12.109058 -3.735719 -2.866785 0.0 -0.0 -1e-06 1.291986 -1.92855 -1.498089 14.800136 0.567466 3.865608 14.242578 -1.341738 -6.66066 19.631973 0.143923 -0.648245 51.121956 -0.331839 -6.929964 0.353028 -1.511152 -0.03194 20.222797 3.68431 2.316632 18.787279 2e-06 -2e-06 10.751631 -0.47987 1.397907 -2e-06 -0.0 -2e-06 3.273808 0.305946 -0.58011 21.486818 11.830377 2.266133 8.162928 1e-06 -1e-06 18.399088 -3.798988 -4.940579 2e-06 0.0 -1e-06 7.187609 21.977329 -115.601608 0.099582 -0.07776 127.42379 -5.425427 -0.731881 -10.497375 1.479497 -2.059245 1.674641 0.0 -1e-06 2e-06 -50.267891 -40.474552 -60.169392 1.630959 1.136695 126.251045 16.475132 43.40834 -26.715096 -1.475686 0.334231 1.838149 0.0 -0.0 -1e-06 
0.0 0.0 0.0 0.0 -0.0 0.0 0.06833 38.292645 4.813127 -3.304893 -1.737848 0.817502 -3.382691 -3.226597 19.386982 -1.193771 -2.343456 4.67914 0.794692 -7.612567 15.418693 -3.6835 5.339029 -9.749886 3.972877 14.718382 -2.636659 -6.235618 19.619043 -16.956757 7.7e-05 -2.4e-05 6e-06 0.035592 -0.165973 -0.045423 0.703145 -3.889788 -10.894814 -0.644685 3.578183 -10.826989 -3.187075 -15.42825 7.879546 -8.858074 -47.417168 25.597025 0.886388 -57.183552 -0.212027 13.874992 3.003852 6.244799 -5.882106 9.861284 0.702591 -10.936876 -0.360575 7.156206 2e-06 8.774828 -0.0 -15.908725 17.805731 6.922233 -1.844032 2.498504 -2.507278 -10.163603 4.678946 4.621109 -20.976027 -4e-06 3e-06 -21.226292 2.451695 -3.593999 0.0 -6e-06 0.0 -1.362682 2.240798 -0.746322 -21.334921 0.584907 3.008322 -13.821219 -4e-06 -0.0 -23.88718 -0.249081 -0.839481 -61.759487 2.832467 -0.429695 -0.294024 1.679687 0.833256 -14.218212 0.093211 1.30058 -34.212063 -0.287566 0.967174 -20.033216 0.964535 1.212846 0.0 -0.0 -1e-06 -3.440389 0.788233 0.501657 -15.928191 -3.167309 2.999708 -6.338829 -1e-06 1e-06 -18.123451 3.648182 -4.905671 -4e-06 0.0 -2e-06 6.899613 16.850901 7.226018 71.853119 10.107828 -4.332156 -3.62056 78.755875 -2.459227 -16.054844 15.183301 1.967633 2.243541 -5.255037 -3.180157 14.282887 -0.826594 6.952501 -2e-06 -12.690601 -1e-06 15.842248 -18.074551 2.824662 1.665666 -1.955922 -2.878299 4.727798 -4.170585 4.993924 11.020522 5e-06 -1e-06 12.10905 -3.735715 -2.866783 0.0 -1e-06 -0.0 1.291985 -1.928549 -1.498089 14.800125 0.567467 3.865607 14.242568 -1.341738 -6.660657 19.631968 0.143925 -0.648244 51.1367 -0.223613 -6.811413 0.353028 -1.51115 -0.03194 20.222786 3.684311 2.316632 18.78727 3e-06 -0.0 10.751625 -0.479867 1.397906 -0.0 2e-06 -1e-06 3.273806 0.305947 -0.580111 21.486811 11.830376 2.266135 8.162924 1e-06 -1e-06 18.399078 -3.798986 -4.940575 4e-06 -0.0 -1e-06 7.022767 22.188486 -115.641617 0.110323 -0.083607 127.285004 -5.401051 -0.787601 -10.490624 1.482391 -2.081393 1.669294 -0.0 -0.0 2e-06 -50.205353 -40.62064 -60.368061 1.674009 1.107533 126.41481 16.27713 43.65062 -26.91654 -1.472355 0.33426 1.822657 0.0 -0.0 -1e-06 
